<!DOCTYPE svg PUBLIC "-//W3C//DTD SVG 20010904//EN" "http://www.w3.org/TR/2001/REC-SVG-20010904/DTD/svg10.dtd">
<svg version="1.0" xmlns="http://www.w3.org/2000/svg" width="570px" height="571px" viewBox="0 0 5700 5710" preserveAspectRatio="xMidYMid meet">
<g id="layer101" fill="#ff3333" stroke="none">
 <path d="M2600 5598 c-475 -43 -951 -221 -1344 -501 -589 -419 -991 -1058 -1115 -1777 -125 -719 45 -1464 472 -2064 419 -589 1058 -991 1777 -1115 720 -125 1464 45 2064 472 589 419 991 1058 1115 1777 125 719 -45 1464 -472 2064 -465 654 -1198 1073 -2007 1146 -133 12 -354 11 -490 -2z"/>
 </g>
<g id="layer102" fill="#fffefe" stroke="none">
 <path d="M2575 5445 c-490 -54 -969 -252 -1355 -561 -111 -89 -308 -286 -394 -394 -291 -365 -480 -801 -553 -1277 -24 -155 -24 -556 0 -713 88 -585 335 -1078 742 -1485 407 -407 900 -654 1485 -742 157 -24 558 -24 713 0 476 73 912 262 1277 553 108 86 305 283 394 394 923 1153 709 2844 -473 3723 -525 391 -1189 572 -1836 502z m1777 -709 c193 -154 375 -352 514 -562 78 -118 201 -363 248 -494 41 -116 110 -370 101 -378 -3 -3 -85 73 -183 169 -97 96 -364 356 -592 579 -228 223 -416 410 -418 416 -2 6 8 24 21 40 42 51 103 147 148 232 24 45 46 82 49 82 3 0 54 -38 112 -84z m-2837 -13 c38 -73 85 -144 172 -262 11 -14 -65 -90 -558 -561 -562 -536 -626 -596 -634 -589 -7 7 64 264 101 369 47 131 170 376 248 494 138 207 319 407 507 556 55 44 104 80 109 80 5 0 30 -39 55 -87z m2474 -586 c80 -78 400 -390 710 -692 l564 -550 -7 -140 c-18 -411 -138 -807 -350 -1155 -63 -103 -193 -280 -205 -280 -4 0 -60 125 -124 278 -64 152 -169 401 -233 552 -64 151 -165 390 -224 530 -150 356 -296 701 -454 1074 -74 176 -133 323 -131 326 2 4 39 27 82 52 43 25 107 69 143 96 36 28 69 51 74 51 5 1 75 -63 155 -142z m-1889 -17 c41 -24 77 -44 79 -46 2 -2 -37 -104 -87 -226 -89 -219 -264 -646 -524 -1283 -72 -176 -192 -471 -268 -655 -75 -184 -163 -401 -196 -482 -32 -81 -61 -148 -64 -148 -9 0 -129 157 -196 257 -36 54 -101 170 -144 258 -154 313 -232 617 -246 965 l-6 145 583 555 c321 305 643 613 716 683 l132 128 73 -54 c40 -30 107 -74 148 -97z m1301 -386 c56 -131 150 -354 209 -494 59 -140 156 -370 215 -510 59 -140 115 -273 125 -295 10 -22 65 -152 123 -290 162 -384 319 -756 381 -900 l55 -130 -57 -55 c-191 -184 -529 -382 -817 -479 -198 -67 -427 -114 -600 -123 l-60 -3 0 1735 0 1735 85 12 c47 7 117 21 155 31 39 10 74 15 78 12 4 -4 53 -114 108 -246z m-904 230 c37 -9 102 -21 143 -27 l75 -12 0 -1735 0 -1734 -50 2 c-169 10 -429 66 -625 135 -138 49 -381 170 -504 251 -108 72 -285 211 -292 231 -6 14 35 119 251 645 62 151 171 419 243 595 328 804 432 1059 539 1320 63 154 121 295 129 313 7 17 15 32 18 32 3 0 35 -7 73 -16z"/>
 </g>

</svg>